/* XPM */
static char * yellowN_texture_xpm[] = {
"8 8 2 1",
" 	c #F4B400",
".	c #FF0000",
"   ..   ",
"  ....  ",
" ...... ",
"........",
"        ",
"        ",
"        ",
"........"};
