/* XPM */
static char * yellowE_texture_xpm[] = {
"8 8 2 1",
" 	c #FF0000",
".	c #F4B400",
" ... ...",
" ...  ..",
" ...   .",
" ...    ",
" ...    ",
" ...   .",
" ...  ..",
" ... ..."};
